<?xml version="1.0" standalone="no"?>
<!DOCTYPE svg PUBLIC "-//W3C//DTD SVG 20010904//EN"
 "http://www.w3.org/TR/2001/REC-SVG-20010904/DTD/svg10.dtd">
<svg version="1.0" xmlns="http://www.w3.org/2000/svg"
 width="250.000000pt" height="66.000000pt" viewBox="0 0 250.000000 66.000000"
 preserveAspectRatio="xMidYMid meet">

<g transform="translate(0.000000,66.000000) scale(0.100000,-0.100000)"
fill="#000000" stroke="none">
<path d="M2398 633 c-26 -4 -28 -8 -28 -49 0 -42 -2 -44 -28 -44 -26 0 -28 -2
-24 -35 3 -25 9 -35 22 -35 16 0 18 -14 23 -132 5 -145 16 -195 50 -232 34
-38 59 -37 69 2 7 26 5 43 -11 75 -14 31 -21 75 -26 165 -7 120 -6 124 14 129
26 7 31 63 6 63 -11 0 -15 12 -15 50 0 34 -4 50 -12 49 -7 -1 -25 -4 -40 -6z"/>
<path d="M657 572 c-18 -26 -51 -75 -72 -109 -21 -35 -39 -63 -40 -63 -1 0
-14 33 -30 73 -15 39 -31 76 -35 80 -4 4 -17 -1 -30 -11 l-24 -19 18 -64 c9
-35 26 -83 36 -107 l19 -42 -48 -113 c-70 -162 -69 -153 -22 -164 l39 -10 20
61 c11 33 28 78 37 100 l16 39 34 -51 c18 -28 48 -69 66 -91 l33 -41 28 27
c15 15 28 31 28 36 0 5 -15 27 -34 50 -45 57 -106 153 -106 169 0 19 124 221
138 226 7 2 12 -3 12 -12 0 -19 -1 -19 43 -1 65 27 62 39 64 -242 1 -141 6
-260 11 -265 4 -4 22 -6 38 -2 l30 6 -1 260 0 260 56 -6 c55 -7 57 -6 63 20 9
35 -2 41 -81 50 -65 7 -134 0 -191 -17 -26 -9 -38 -8 -57 5 -23 15 -24 14 -58
-32z"/>
<path d="M280 586 c0 -13 -8 -15 -43 -10 -75 11 -126 -29 -173 -131 -24 -52
-28 -75 -32 -175 -3 -105 -1 -119 20 -160 13 -25 35 -51 49 -59 54 -30 96 6
136 119 10 27 20 50 24 50 3 0 9 -46 13 -102 3 -56 8 -103 10 -105 1 -2 16 1
32 7 l29 10 0 280 c0 255 -2 280 -17 280 -9 0 -23 3 -32 6 -11 4 -16 1 -16
-10z m-46 -92 c23 -9 20 -61 -9 -181 -23 -96 -58 -187 -75 -198 -37 -23 -49
172 -17 277 11 37 27 65 48 82 34 29 32 28 53 20z"/>
<path d="M1224 489 c-11 -19 -7 -272 6 -349 9 -56 15 -70 27 -66 8 4 26 9 39
12 25 6 25 5 9 79 l-7 30 24 -21 c27 -25 53 -39 90 -48 23 -5 27 -2 37 26 6
17 11 32 11 33 0 2 -13 8 -30 15 -47 20 -57 38 -31 57 28 19 60 87 61 126 0
35 -24 82 -45 91 -32 12 -73 6 -99 -15 l-26 -20 0 30 c0 28 -3 31 -29 31 -17
0 -33 -5 -37 -11z m156 -103 c0 -18 -28 -54 -52 -67 -19 -10 -20 -9 -14 17 11
44 34 74 51 68 8 -4 15 -11 15 -18z"/>
<path d="M1494 489 c-11 -19 -7 -272 6 -349 9 -56 15 -70 27 -66 8 4 26 9 39
12 25 6 25 5 9 79 l-7 30 24 -21 c27 -25 53 -39 90 -48 23 -5 27 -2 37 26 6
17 11 32 11 33 0 2 -13 8 -30 15 -47 20 -57 38 -31 57 28 19 60 87 61 126 0
35 -24 82 -45 91 -32 12 -73 6 -99 -15 l-26 -20 0 30 c0 28 -3 31 -29 31 -17
0 -33 -5 -37 -11z m156 -103 c0 -18 -28 -54 -52 -67 -19 -10 -20 -9 -14 17 11
44 34 74 51 68 8 -4 15 -11 15 -18z"/>
<path d="M1860 468 c-54 -36 -90 -116 -90 -201 0 -93 20 -134 78 -160 34 -15
57 -18 95 -14 27 4 52 8 54 11 2 2 1 20 -2 39 -7 34 -8 35 -38 26 -53 -15
-107 14 -107 58 0 18 5 23 26 23 92 0 160 138 102 204 -33 38 -75 43 -118 14z
m60 -82 c0 -15 -11 -33 -26 -45 -34 -27 -47 -27 -38 2 19 61 64 91 64 43z"/>
<path d="M2252 479 l-32 -10 5 -77 c3 -42 2 -99 -2 -127 l-9 -50 -32 120 c-18
66 -35 125 -37 131 -4 12 -89 3 -103 -10 -8 -9 -10 -342 -1 -350 3 -3 20 -3
37 0 l32 7 1 76 0 76 33 -85 33 -85 48 0 49 0 13 50 c26 95 29 347 5 344 -4 0
-22 -5 -40 -10z"/>
<path d="M1024 441 c-94 -57 -87 -291 10 -338 34 -16 38 -16 72 0 97 47 101
292 5 341 -39 20 -49 20 -87 -3z m64 -73 c7 -7 12 -41 12 -82 0 -107 -37 -162
-60 -90 -14 40 -8 115 11 157 14 30 20 32 37 15z"/>
</g>
</svg>
